<svg width="172" height="21" viewBox="0 0 172 21" fill="none" xmlns="http://www.w3.org/2000/svg">
<path d="M139.048 9.15344C137.757 9.15344 137.365 10.2919 137.365 11.3669C137.365 12.4418 137.757 13.5938 139.048 13.5938C140.338 13.5938 140.747 12.4418 140.747 11.3669C140.747 10.2919 140.338 9.15344 139.048 9.15344Z" fill="#005DAB"/>
<path d="M105.261 8.68628C104.281 8.68628 103.772 9.38728 103.608 10.413H106.893C106.81 9.50187 106.192 8.68628 105.261 8.68628Z" fill="#005DAB"/>
<path d="M57.2391 9.15344C55.9484 9.15344 55.5566 10.2919 55.5566 11.3669C55.5566 12.4418 55.9484 13.5938 57.2391 13.5938C58.5298 13.5938 58.9383 12.4418 58.9383 11.3669C58.9383 10.2919 58.5293 9.15344 57.2391 9.15344Z" fill="#005DAB"/>
<path d="M34.1122 8.68628C33.1313 8.68628 32.6233 9.38728 32.4595 10.413H35.7444C35.662 9.50187 35.0427 8.68628 34.1122 8.68628Z" fill="#005DAB"/>
<path d="M81.6915 12.2757C81.0713 12.4228 80.5483 12.5945 80.5483 13.2621C80.5483 13.9464 81.0871 14.0457 81.7083 14.0457C83.0316 14.0457 83.2945 13.4741 83.2289 11.7311C82.7445 11.982 82.2279 12.1653 81.6934 12.2757" fill="#005DAB"/>
<path d="M154.606 8.68628C153.626 8.68628 153.117 9.38728 152.954 10.413H156.239C156.156 9.50187 155.537 8.68628 154.606 8.68628Z" fill="#005DAB"/>
<path d="M160.996 8.83935C160.565 8.82144 160.148 8.67757 159.798 8.4256C159.448 8.17364 159.179 7.82469 159.027 7.42206C158.874 7.01943 158.843 6.58086 158.937 6.16084C159.032 5.74081 159.249 5.35782 159.56 5.05942C159.871 4.76101 160.264 4.56033 160.688 4.48232C161.113 4.4043 161.551 4.45238 161.949 4.62057C162.346 4.78876 162.685 5.06967 162.924 5.42841C163.163 5.78714 163.291 6.20791 163.292 6.63845C163.293 6.93523 163.233 7.22911 163.117 7.50235C163.001 7.77559 162.83 8.02252 162.616 8.22822C162.401 8.43392 162.147 8.59413 161.869 8.69917C161.59 8.8042 161.293 8.85189 160.996 8.83935ZM159.07 12.2261H152.986C153.153 13.2309 153.694 13.8262 154.583 13.8262C154.905 13.8246 155.218 13.7263 155.482 13.5441C155.746 13.362 155.948 13.1045 156.063 12.8055L158.909 12.8092C158.633 13.7401 158.062 14.5566 157.281 15.1359C156.5 15.7152 155.552 16.026 154.578 16.0215C151.817 16.0215 149.998 13.9751 149.998 11.1414C149.998 8.55078 152.081 6.75164 154.58 6.72381C157.635 6.68994 159.621 9.00636 159.068 12.2265L159.07 12.2261ZM149.889 9.5951C149.889 9.5951 149.847 9.52133 148.733 9.66933C147.767 10.2613 147.275 10.5944 147.275 11.5227V15.7784H144.498V7.17615H147.193V8.39212H147.225C147.517 7.95134 147.912 7.58803 148.376 7.33364C148.84 7.07925 149.359 6.94143 149.889 6.93212V9.5951ZM139.048 16.0661C136.417 16.0661 134.588 13.7594 134.588 11.2179C134.566 10.6266 134.666 10.0371 134.882 9.48594C135.098 8.93477 135.425 8.43371 135.843 8.0138C136.261 7.59389 136.761 7.26407 137.313 7.0448C137.864 6.82554 138.454 6.72149 139.048 6.73911C139.648 6.73456 140.243 6.85139 140.797 7.08256C141.351 7.31373 141.853 7.65444 142.271 8.08412C142.689 8.5138 143.016 9.02354 143.231 9.58257C143.446 10.1416 143.546 10.7383 143.523 11.3367C143.523 13.8777 141.677 16.0661 139.048 16.0661ZM134.342 9.11632H132.626V13.1089C132.626 13.7761 133.018 13.9227 133.623 13.9227C133.852 13.9227 134.096 13.8902 134.342 13.8902V15.9264C133.835 15.9426 133.329 16.0076 132.822 16.0076C130.454 16.0076 129.849 15.3238 129.849 13.0268V9.11632H128.444V7.65074H125.821C125.871 6.59158 124.874 6.07337 123.943 6.07337C123.292 6.07337 122.175 6.47885 122.175 7.24435C122.175 8.13974 124.154 8.3035 125.854 8.77532C127.536 9.24761 129.116 10.0279 129.116 12.1305C129.116 15.0783 126.719 16.0234 124.154 16.0234C121.476 16.0234 119.106 14.851 119.09 11.8698H122.129C122.194 13.2379 123.044 13.6791 124.334 13.6791C125.249 13.6791 126.048 13.3544 126.048 12.49C126.048 11.4638 124.53 11.4759 122.848 11.0055C121.181 10.5332 119.344 9.57608 119.344 7.44245C119.344 4.90148 121.849 3.64142 124.038 3.64142C126.259 3.64142 128.435 4.91863 128.631 7.32877H129.848V5.09725H132.625V7.32877H134.341L134.342 9.11632ZM116.159 9.59603C116.159 9.59603 116.116 9.52227 115.003 9.67026C114.038 10.2622 113.545 10.5953 113.545 11.5237V15.7784H110.768V7.17615H113.463V8.39212H113.496C113.787 7.9512 114.182 7.58778 114.646 7.33337C115.11 7.07896 115.629 6.94123 116.159 6.93212V9.59603ZM109.724 12.2275H103.642C103.809 13.2323 104.35 13.8276 105.24 13.8276C105.561 13.826 105.874 13.7277 106.138 13.5455C106.402 13.3634 106.605 13.1059 106.72 12.8069L109.565 12.8106C109.29 13.7415 108.719 14.558 107.938 15.1373C107.157 15.7166 106.208 16.0274 105.235 16.0229C102.474 16.0229 100.655 13.9765 100.655 11.1428C100.655 8.55217 102.738 6.75303 105.237 6.72519C108.292 6.69133 110.278 9.00775 109.724 12.2279V12.2275ZM99.698 15.7784H96.9188V11.6902C96.9188 10.5336 97.0496 9.36127 95.5309 9.36127C94.4849 9.36127 94.028 10.2427 94.028 11.1706V15.7784H91.2507V7.17615H93.9461V8.09613H93.9787C94.4849 7.23321 95.6291 6.93212 96.6415 6.93212C99.4672 6.93212 99.6961 9.13255 99.6961 10.3546L99.698 15.7784ZM90.0536 6.28121H87.2763V4.16289H90.0536V6.28121ZM90.0536 15.7919H87.2763V7.10284H90.0536V15.7919ZM83.6196 15.7784C83.5321 15.5202 83.4771 15.2522 83.4558 14.9804C83.0842 15.3317 82.6456 15.605 82.166 15.7841C81.6865 15.9632 81.1757 16.0444 80.6641 16.0229C79.0468 16.0229 77.7728 15.2082 77.7728 13.4657C77.7728 10.7132 80.7786 10.7178 82.7048 10.3267C83.179 10.2288 83.44 10.2729 83.44 9.75191C83.44 9.11679 82.6727 8.87275 82.1004 8.87275C81.7759 8.83115 81.448 8.91898 81.188 9.11714C80.928 9.3153 80.7569 9.60777 80.712 9.93098H78.1148C78.1144 9.47067 78.2367 9.01852 78.4691 8.6208C78.7016 8.22308 79.0358 7.89407 79.4376 7.66745C80.2581 7.19254 81.1847 6.92971 82.133 6.90288C84.1426 6.90288 86.0879 7.52038 86.0879 9.91474V13.6118C86.032 14.3492 86.1433 15.0898 86.4136 15.7784H83.6196ZM77.2973 9.11632H75.5823V13.1089C75.5823 13.7761 75.974 13.9227 76.5789 13.9227C76.8074 13.9227 77.0526 13.8902 77.2973 13.8902V15.9264C76.7911 15.9426 76.2848 16.0076 75.7786 16.0076C73.4094 16.0076 72.805 15.3238 72.805 13.0268V9.11632H71.4003V7.32461H72.805V5.09307H75.5823V7.32461H77.2973V9.11632ZM71.1067 15.7784H68.3299V11.6902C68.3299 10.5336 68.4606 9.36127 66.941 9.36127C65.8955 9.36127 65.4381 10.2427 65.4381 11.1706V15.7784H62.6608V7.17615H65.3562V8.09613H65.3893C65.8955 7.23321 67.0387 6.93212 68.0516 6.93212C70.8782 6.93212 71.1067 9.13255 71.1067 10.3546V15.7784ZM57.2412 16.0674C54.6114 16.0674 52.7819 13.7608 52.7819 11.2193C52.76 10.628 52.8601 10.0386 53.076 9.48744C53.2919 8.93631 53.619 8.43526 54.0371 8.01536C54.4552 7.59545 54.9553 7.26564 55.5065 7.04634C56.0576 6.82705 56.648 6.72296 57.2412 6.74051C57.8418 6.7359 58.4371 6.85267 58.9912 7.08381C59.5452 7.31494 60.0466 7.65565 60.465 8.08533C60.8833 8.51501 61.21 9.02477 61.4253 9.58383C61.6407 10.1429 61.7401 10.7396 61.7177 11.3381C61.7177 13.8791 59.8715 16.0674 57.2412 16.0674ZM47.105 16.0211C43.5763 16.0211 41.2889 13.1558 41.2889 9.78392C41.2889 6.41205 43.5763 3.54724 47.105 3.54724C49.6203 3.54724 51.7546 5.11349 51.8364 7.91519H49.0038C48.84 6.74283 48.311 6.30163 47.037 6.30163C45.0768 6.30163 44.3254 8.23531 44.3254 9.96161C44.3254 11.6879 45.4197 13.4151 46.8891 13.4151C48.3096 13.4151 48.8591 12.6005 48.9736 11.2648H52.0123C51.9852 12.5419 51.4549 13.757 50.536 14.6471C49.6171 15.5373 48.3837 16.0309 47.1026 16.0211H47.105ZM38.5754 12.2261H32.4936C32.6602 13.2309 33.2013 13.8262 34.0914 13.8262C34.4124 13.8245 34.7254 13.7262 34.9894 13.5441C35.2534 13.3619 35.4559 13.1045 35.5706 12.8055L38.4162 12.8092C38.1407 13.7401 37.5694 14.5567 36.7884 15.136C36.0074 15.7153 35.0588 16.026 34.0854 16.0215C31.3248 16.0215 29.5056 13.9751 29.5056 11.1414C29.5056 8.55078 31.5887 6.75164 34.0877 6.72381C37.1428 6.68994 39.1281 9.00636 38.5754 12.2265V12.2261ZM28.5522 15.7784H25.5967V11.6902C25.5967 10.5336 25.727 8.94606 24.2083 8.94606C23.1623 8.94606 22.8832 10.2409 22.8832 11.1692V15.7784H19.8979V6.75396H17.3626V15.7784H14.3238V6.75396H10.8444V4.14851H22.8832V7.94767H22.9162C23.3405 7.08475 24.4842 6.63566 25.4971 6.63566C28.3233 6.63566 28.5522 9.13255 28.5522 10.3546V15.7784ZM162.279 0H9.72073C4.35227 0 0 5.14967 0 10.5002C0 15.8508 4.35227 21 9.72073 21H162.279C167.647 21 172 15.8503 172 10.5002C172 5.15013 167.647 0 162.279 0Z" fill="#005DAB"/>
<path d="M161.426 6.10302C161.426 5.92812 161.164 5.90076 160.957 5.90076H160.575V6.3271H160.979C161.235 6.3271 161.426 6.30019 161.426 6.10302Z" fill="#005DAB"/>
<path d="M161.512 7.72306L160.89 6.76226H160.574V7.72306H160.068V5.47391H161.031C161.671 5.47391 162.029 5.65067 162.029 6.13965C162.029 6.55302 161.76 6.69128 161.381 6.71819L162.063 7.70034L161.512 7.72306ZM160.989 4.93945C160.656 4.94876 160.333 5.0557 160.061 5.24687C159.789 5.43804 159.58 5.70494 159.459 6.0142C159.339 6.32346 159.312 6.66132 159.383 6.98551C159.454 7.30969 159.619 7.6058 159.858 7.83678C160.097 8.06775 160.399 8.22333 160.726 8.28405C161.054 8.34476 161.392 8.30791 161.698 8.17812C162.004 8.04832 162.265 7.83134 162.448 7.55432C162.632 7.27731 162.729 6.95257 162.728 6.62075C162.729 6.39531 162.684 6.17205 162.596 5.96432C162.508 5.75659 162.379 5.56865 162.217 5.4118C162.054 5.25494 161.862 5.1324 161.651 5.05147C161.44 4.97055 161.215 4.93292 160.989 4.94085" fill="#005DAB"/>
</svg>
