<svg width="33" height="33" viewBox="0 0 33 33" fill="none" xmlns="http://www.w3.org/2000/svg">
<path d="M26.8125 29.5625C27.9516 29.5625 28.875 28.6391 28.875 27.5C28.875 26.3609 27.9516 25.4375 26.8125 25.4375C25.6734 25.4375 24.75 26.3609 24.75 27.5C24.75 28.6391 25.6734 29.5625 26.8125 29.5625Z" stroke="black" stroke-miterlimit="10" stroke-linecap="round" stroke-linejoin="round"/>
<path d="M13.0625 29.5625C14.2016 29.5625 15.125 28.6391 15.125 27.5C15.125 26.3609 14.2016 25.4375 13.0625 25.4375C11.9234 25.4375 11 26.3609 11 27.5C11 28.6391 11.9234 29.5625 13.0625 29.5625Z" stroke="black" stroke-miterlimit="10" stroke-linecap="round" stroke-linejoin="round"/>
<path d="M2.0625 4.8125H5.91047C6.8694 4.8125 7.69339 5.49312 7.87448 6.43481L10.688 21.0652C10.8691 22.0069 11.6931 22.6875 12.652 22.6875H27.1526C28.1426 22.6875 28.9836 21.9632 29.1305 20.9842L30.593 11.2342C30.7744 10.025 29.8379 8.9375 28.6151 8.9375H13.75" stroke="black" stroke-miterlimit="10" stroke-linecap="round" stroke-linejoin="round"/>
</svg>
