<svg width="34" height="28" viewBox="0 0 34 28" fill="none" xmlns="http://www.w3.org/2000/svg">
<path d="M33.2497 2.72239H31.033V0.583328C31.033 0.42862 30.9716 0.280248 30.8622 0.170853C30.7528 0.0614577 30.6044 0 30.4497 0H19.2498C18.7953 0.00122936 18.3475 0.109057 17.9422 0.314818C17.537 0.520579 17.1857 0.818534 16.9165 1.18474C16.6473 0.818534 16.296 0.520579 15.8908 0.314818C15.4855 0.109057 15.0377 0.00122936 14.5832 0H3.3833C3.22859 0 3.08022 0.0614577 2.97083 0.170853C2.86143 0.280248 2.79997 0.42862 2.79997 0.583328V2.72239H0.583328C0.42862 2.72239 0.280248 2.78385 0.170853 2.89324C0.0614575 3.00264 0 3.15101 0 3.30572V25.0831C0 25.2378 0.0614575 25.3862 0.170853 25.4956C0.280248 25.605 0.42862 25.6664 0.583328 25.6664H9.91657V27.4164C9.91652 27.5158 9.9419 27.6136 9.99029 27.7005C10.0387 27.7874 10.1085 27.8605 10.1931 27.9128C10.2776 27.9651 10.3742 27.9949 10.4735 27.9994C10.5728 28.0039 10.6717 27.9829 10.7606 27.9385L12.8332 26.9019L14.9058 27.9379C14.9947 27.9823 15.0935 28.0033 15.1928 27.9988C15.2921 27.9944 15.3886 27.9646 15.4731 27.9123C15.5577 27.8601 15.6275 27.7871 15.6759 27.7003C15.7243 27.6135 15.7498 27.5158 15.7498 27.4164V25.6664H33.2497C33.4044 25.6664 33.5528 25.605 33.6622 25.4956C33.7715 25.3862 33.833 25.2378 33.833 25.0831V3.30572C33.833 3.15101 33.7715 3.00264 33.6622 2.89324C33.5528 2.78385 33.4044 2.72239 33.2497 2.72239ZM19.2498 1.16666H29.8664V20.2222H19.2498C18.6167 20.2245 18.0018 20.4348 17.4998 20.8207V2.91664C17.4998 2.45251 17.6842 2.0074 18.0124 1.67921C18.3406 1.35103 18.7857 1.16666 19.2498 1.16666ZM14.5832 1.16666C15.0473 1.16666 15.4924 1.35103 15.8206 1.67921C16.1488 2.0074 16.3332 2.45251 16.3332 2.91664V20.8166C15.8312 20.4307 15.2164 20.2204 14.5832 20.2181H3.96663V3.30572C3.96663 3.30047 3.96663 3.29638 3.96663 3.29172V1.16666H14.5832ZM1.16666 3.88905H2.79997V24.4998H1.16666V3.88905ZM14.5832 26.4726L13.094 25.7282C13.0129 25.6877 12.9235 25.6666 12.8329 25.6666C12.7423 25.6666 12.6529 25.6877 12.5719 25.7282L11.0832 26.4726V23.3331H14.5832V26.4726ZM15.1665 22.1665H10.4999C10.3452 22.1665 10.1968 22.2279 10.0874 22.3373C9.97803 22.4467 9.91657 22.5951 9.91657 22.7498V24.4998H3.96663V21.3848H14.5832C15.0473 21.3848 15.4924 21.5692 15.8206 21.8974C16.1488 22.2255 16.3332 22.6707 16.3332 23.1348V24.4998H15.7498V22.7498C15.7498 22.5951 15.6884 22.4467 15.579 22.3373C15.4696 22.2279 15.3212 22.1665 15.1665 22.1665ZM17.4998 23.3331H25.6664V22.1665H17.7962C17.9559 21.9274 18.1721 21.7314 18.4257 21.5958C18.6792 21.4601 18.9623 21.3891 19.2498 21.3889H29.8664V24.4998H17.4998V23.3331ZM32.6664 24.4998H31.033V3.88905H32.6664V24.4998Z" fill="#333337"/>
<path d="M26.3887 4.73438H20.9766V5.90103H26.3887V4.73438Z" fill="#333337"/>
<path d="M26.3887 6.60938H20.9766V7.77603H26.3887V6.60938Z" fill="#333337"/>
<path d="M26.3887 10.8203H20.9766V11.987H26.3887V10.8203Z" fill="#333337"/>
<path d="M26.3877 13.8674H23.6816V15.034H26.3877V13.8674Z" fill="#333337"/>
<path d="M12.8569 13.8674H7.44482V15.034H12.8569V13.8674Z" fill="#333337"/>
<path d="M12.8339 5.25H7.58398V6.41666H12.8339V5.25Z" fill="#333337"/>
<path d="M12.8339 7.58203H7.58398V8.74869H12.8339V7.58203Z" fill="#333337"/>
</svg>
