<svg width="31" height="31" viewBox="0 0 31 31" fill="none" xmlns="http://www.w3.org/2000/svg">
<path fill-rule="evenodd" clip-rule="evenodd" d="M11.3963 10.5283H19.5892C19.744 10.5725 19.8802 10.666 19.9772 10.7946C20.0741 10.9231 20.1266 11.0797 20.1266 11.2407C20.1266 11.4018 20.0741 11.5584 19.9772 11.6869C19.8802 11.8155 19.744 11.9089 19.5892 11.9532H11.3963C11.2415 11.9089 11.1053 11.8155 11.0083 11.6869C10.9113 11.5584 10.8589 11.4018 10.8589 11.2407C10.8589 11.0797 10.9113 10.9231 11.0083 10.7946C11.1053 10.666 11.2415 10.5725 11.3963 10.5283Z" fill="#039BE5"/>
<path d="M25.0323 8.0918H5.96784C5.52716 8.0918 5.16992 8.44904 5.16992 8.88971V23.181C5.16992 23.6216 5.52716 23.9789 5.96784 23.9789H25.0323C25.473 23.9789 25.8303 23.6216 25.8303 23.181V8.88971C25.8303 8.44904 25.473 8.0918 25.0323 8.0918Z" stroke="#039BE5" stroke-width="1.2" stroke-miterlimit="10"/>
<path d="M18.6777 17.4673H12.3228C11.8821 17.4673 11.5249 17.8245 11.5249 18.2652V23.1952C11.5249 23.6359 11.8821 23.9931 12.3228 23.9931H18.6777C19.1183 23.9931 19.4756 23.6359 19.4756 23.1952V18.2652C19.4756 17.8245 19.1183 17.4673 18.6777 17.4673Z" stroke="#039BE5" stroke-width="1.2" stroke-miterlimit="10"/>
<path d="M2.81885 14.2472H28.1812" stroke="#039BE5" stroke-width="1.2" stroke-miterlimit="10" stroke-linecap="round"/>
</svg>
