<svg width="28" height="28" viewBox="0 0 28 28" fill="none" xmlns="http://www.w3.org/2000/svg">
<g clip-path="url(#clip0)">
<path d="M3.87598 14C3.87598 14.1651 3.94153 14.3233 4.05822 14.44C4.17491 14.5567 4.33318 14.6223 4.4982 14.6223H23.6004C23.7654 14.6223 23.9237 14.5567 24.0404 14.44C24.1571 14.3233 24.2226 14.1651 24.2226 14C24.2226 13.835 24.1571 13.6767 24.0404 13.5601C23.9237 13.4434 23.7654 13.3778 23.6004 13.3778H4.4982C4.33318 13.3778 4.17491 13.4434 4.05822 13.5601C3.94153 13.6767 3.87598 13.835 3.87598 14Z" fill="black"/>
<path d="M25.5109 0H19.7243C19.5592 0 19.401 0.0655553 19.2843 0.182245C19.1676 0.298934 19.1021 0.457199 19.1021 0.622222C19.1021 0.787246 19.1676 0.94551 19.2843 1.0622C19.401 1.17889 19.5592 1.24444 19.7243 1.24444H25.5109C25.841 1.24444 26.1575 1.37556 26.3909 1.60893C26.6243 1.84231 26.7554 2.15884 26.7554 2.48889V8.27556C26.7554 8.44058 26.8209 8.59884 26.9376 8.71553C27.0543 8.83222 27.2126 8.89778 27.3776 8.89778C27.5426 8.89778 27.7009 8.83222 27.8176 8.71553C27.9343 8.59884 27.9998 8.44058 27.9998 8.27556V2.48889C27.9998 1.82879 27.7376 1.19574 27.2708 0.728979C26.8041 0.262222 26.171 0 25.5109 0Z" fill="black"/>
<path d="M27.3776 19.1033C27.2126 19.1033 27.0543 19.1688 26.9376 19.2855C26.8209 19.4022 26.7554 19.5605 26.7554 19.7255V25.5122C26.7554 25.8422 26.6243 26.1587 26.3909 26.3921C26.1575 26.6255 25.841 26.7566 25.5109 26.7566H19.7243C19.5592 26.7566 19.401 26.8222 19.2843 26.9388C19.1676 27.0555 19.1021 27.2138 19.1021 27.3788C19.1021 27.5438 19.1676 27.7021 19.2843 27.8188C19.401 27.9355 19.5592 28.001 19.7243 28.001H25.5109C26.171 28.001 26.8041 27.7388 27.2708 27.2721C27.7376 26.8053 27.9998 26.1723 27.9998 25.5122V19.7255C27.9998 19.5605 27.9343 19.4022 27.8176 19.2855C27.7009 19.1688 27.5426 19.1033 27.3776 19.1033Z" fill="black"/>
<path d="M0.622222 8.89778C0.787246 8.89778 0.94551 8.83222 1.0622 8.71553C1.17889 8.59884 1.24444 8.44058 1.24444 8.27556V2.48889C1.24444 2.15884 1.37556 1.84231 1.60893 1.60893C1.84231 1.37556 2.15884 1.24444 2.48889 1.24444H8.27556C8.44058 1.24444 8.59884 1.17889 8.71553 1.0622C8.83222 0.94551 8.89778 0.787246 8.89778 0.622222C8.89778 0.457199 8.83222 0.298934 8.71553 0.182245C8.59884 0.0655553 8.44058 0 8.27556 0H2.48889C1.82879 0 1.19574 0.262222 0.728979 0.728979C0.262222 1.19574 0 1.82879 0 2.48889V8.27556C0 8.44058 0.0655553 8.59884 0.182245 8.71553C0.298934 8.83222 0.457199 8.89778 0.622222 8.89778Z" fill="black"/>
<path d="M8.27556 26.7566H2.48889C2.15884 26.7566 1.84231 26.6255 1.60893 26.3921C1.37556 26.1587 1.24444 25.8422 1.24444 25.5122V19.7255C1.24444 19.5605 1.17889 19.4022 1.0622 19.2855C0.94551 19.1688 0.787246 19.1033 0.622222 19.1033C0.457199 19.1033 0.298934 19.1688 0.182245 19.2855C0.0655553 19.4022 0 19.5605 0 19.7255V25.5122C0 26.1723 0.262222 26.8053 0.728979 27.2721C1.19574 27.7388 1.82879 28.001 2.48889 28.001H8.27556C8.44058 28.001 8.59884 27.9355 8.71553 27.8188C8.83222 27.7021 8.89778 27.5438 8.89778 27.3788C8.89778 27.2138 8.83222 27.0555 8.71553 26.9388C8.59884 26.8222 8.44058 26.7566 8.27556 26.7566Z" fill="black"/>
</g>
<defs>
<clipPath id="clip0">
<rect width="28" height="28" fill="white"/>
</clipPath>
</defs>
</svg>
